# xmcd
#
# Track frame offsets:
#	150
#	46570
#	65820
#	76565
#	91057
#	100837
#	111070
#	126102
#	134332
#	150242
#	171920
#	184570
#	195347
#	202372
#	219912
#	247132
#	253075
#	279692
#
# Disc length: 4120 seconds
#
# Revision: 0
# Processed by: cddbd v1.5.2PL0 Copyright (c) Steve Scherf et al.
# Submitted via: EasyCDDAExtractor 16.0.6.1
#
DISCID=f4101612
DTITLE=Άνευ ερμηνευτού - Κρήτη μου όμορφο νησί 1
DYEAR=2007
DGENRE=Κρητική
TTITLE0=Άνευ ερμηνευτού - Συρτά [λύρα, Νίκος Γωνιανάκης]
TTITLE1=Άνευ ερμηνευτού - Μαλεβιζιώτικος χορός [βιολί, Γιώργος Αβυσσινός]
TTITLE2=Άνευ ερμηνευτού - Ερωτόκριτος [Βασίλης Σκουλάς]
TTITLE3=Άνευ ερμηνευτού - Συρτό Ροδανού [λύρα, Βασίλης Σκουλάς]
TTITLE4=Άνευ ερμηνευτού - Τα σίδερα [Βασίλης Σκουλάς]
TTITLE5=Άνευ ερμηνευτού - Τραγούδι του γάμου [λύρα, Βασίλης Σκουλάς]
TTITLE6=Άνευ ερμηνευτού - Σιγανός πεντοζάλης [λύρα, Βασίλης Σκουλάς]
TTITLE7=Άνευ ερμηνευτού - Πεντοζάλης
TTITLE8=Άνευ ερμηνευτού - Πηδηχτός χορός [λύρα, Νίκος Γωνιανάκης]
TTITLE9=Άνευ ερμηνευτού - Συρτά [λύρα, Νίκος Γωνιανάκης]
TTITLE10=Άνευ ερμηνευτού - Σώσε με γιατρέ μου [λύρα, Ψαραντώνης]
TTITLE11=Άνευ ερμηνευτού - Αυτοσχεδιασμός με λύρα [λύρα, Ψαραντώνης]
TTITLE12=Άνευ ερμηνευτού - Σούστα [λύρα, Νίκος Γωνιανάκης]
TTITLE13=Άνευ ερμηνευτού - Κοντυλιές Βιανίτικες [μαντολίνο, Γιώργος Αβυσσινός]
TTITLE14=Άνευ ερμηνευτού - Συρτά [λύρα, Ψαραντώνης]
TTITLE15=Άνευ ερμηνευτού - Αντίλαλος του Ψηλορείτη [λύρα, Ψαραντώνης]
TTITLE16=Ψαραντώνης - Γρήγορος πηδηχτός [λύρα, Ψαραντώνης]
TTITLE17=Άνευ ερμηνευτού - Συρτά [λύρα,  Νίκος Γωνιανάκης]
EXTD=
EXTT0=
EXTT1=
EXTT2=
EXTT3=
EXTT4=
EXTT5=
EXTT6=
EXTT7=
EXTT8=
EXTT9=
EXTT10=
EXTT11=
EXTT12=
EXTT13=
EXTT14=
EXTT15=
EXTT16=
EXTT17=
PLAYORDER=
